<?xml version="1.0" encoding="UTF-8" standalone="no"?>
<svg
   xmlns:dc="http://purl.org/dc/elements/1.1/"
   xmlns:cc="http://creativecommons.org/ns#"
   xmlns:rdf="http://www.w3.org/1999/02/22-rdf-syntax-ns#"
   xmlns:svg="http://www.w3.org/2000/svg"
   xmlns="http://www.w3.org/2000/svg"
   xmlns:sodipodi="http://sodipodi.sourceforge.net/DTD/sodipodi-0.dtd"
   xmlns:inkscape="http://www.inkscape.org/namespaces/inkscape"
   id="svg8"
   version="1.1"
   viewBox="0 0 28.575 28.575001"
   height="108"
   width="108"
   sodipodi:docname="logo_bg.svg"
   inkscape:version="0.92.4 5da689c313, 2019-01-14">
  <sodipodi:namedview
     pagecolor="#ffffff"
     bordercolor="#666666"
     borderopacity="1"
     objecttolerance="10"
     gridtolerance="10"
     guidetolerance="10"
     inkscape:pageopacity="0"
     inkscape:pageshadow="2"
     inkscape:window-width="1887"
     inkscape:window-height="1054"
     id="namedview821"
     showgrid="false"
     inkscape:zoom="7.787037"
     inkscape:cx="54"
     inkscape:cy="54"
     inkscape:window-x="33"
     inkscape:window-y="0"
     inkscape:window-maximized="1"
     inkscape:current-layer="svg8" />
  <defs
     id="defs2" />
  <metadata
     id="metadata5">
    <rdf:RDF>
      <cc:Work
         rdf:about="">
        <dc:format>image/svg+xml</dc:format>
        <dc:type
           rdf:resource="http://purl.org/dc/dcmitype/StillImage" />
        <dc:title />
      </cc:Work>
    </rdf:RDF>
  </metadata>
  <rect
     style="color:#000000;clip-rule:nonzero;display:inline;overflow:visible;visibility:visible;opacity:1;isolation:auto;mix-blend-mode:normal;color-interpolation:sRGB;color-interpolation-filters:linearRGB;solid-color:#000000;solid-opacity:1;fill:#212178;fill-opacity:1;fill-rule:nonzero;stroke:none;stroke-width:2.18912673;stroke-linecap:butt;stroke-linejoin:miter;stroke-miterlimit:4;stroke-dasharray:none;stroke-dashoffset:0;stroke-opacity:1;color-rendering:auto;image-rendering:auto;shape-rendering:auto;text-rendering:auto;enable-background:accumulate"
     id="rect4973-1"
     width="28.575005"
     height="28.574997"
     x="-3.4667963e-08"
     y="-5.2392579e-06" />
  <path
     inkscape:connector-curvature="0"
     style="font-style:normal;font-variant:normal;font-weight:bold;font-stretch:normal;font-size:4.8998189px;line-height:4.8998189px;font-family:'Bitstream Vera Sans Mono';-inkscape-font-specification:'Bitstream Vera Sans Mono Bold';letter-spacing:0px;word-spacing:0px;fill:#87aade;fill-opacity:1;stroke:none;stroke-width:0.13127777px;stroke-linecap:butt;stroke-linejoin:miter;stroke-opacity:1"
     d="m 15.782703,9.7004528 v 0.8426282 c -0.0653,-0.08778 -0.141475,-0.153408 -0.228538,-0.196828 -0.08585,-0.04436 -0.183212,-0.06663 -0.292042,-0.06663 -0.24063,0 -0.426439,0.07169 -0.557034,0.215166 -0.129384,0.14347 -0.19404,0.349313 -0.19404,0.617378 0,0.264288 0.0643,0.468962 0.192473,0.61432 0.128176,0.145358 0.308403,0.218221 0.540571,0.218221 0.122129,0 0.227647,-0.02312 0.317129,-0.06938 0.09069,-0.04625 0.164649,-0.115049 0.221481,-0.206608 v 0.235032 h 0.529593 V 9.7004528 Z M 9.3201632,10.279626 c -0.1438954,0 -0.2698783,0.02516 -0.3774976,0.07519 -0.1076191,0.04908 -0.1875171,0.118746 -0.2395128,0.209358 V 10.31783 H 8.1719905 v 1.585926 h 0.5311623 v -0.730767 c 0,-0.103822 0.00559,-0.18131 0.016464,-0.23228 0.012092,-0.05097 0.032523,-0.09433 0.061544,-0.130199 0.04595,-0.05852 0.1106059,-0.102743 0.1940409,-0.13295 0.084644,-0.03115 0.1835052,-0.04677 0.2959613,-0.04677 0.093109,0 0.1781961,0.01042 0.2555849,0.03117 0.078598,0.02077 0.1469752,0.05199 0.2050171,0.09352 v -0.395177 c -0.062879,-0.02642 -0.1293958,-0.04607 -0.1995297,-0.0593 -0.068924,-0.01415 -0.1395205,-0.0214 -0.2120729,-0.0214 z m 1.6922718,0 c -0.298674,0 -0.534647,0.07518 -0.707564,0.225251 -0.172916,0.150078 -0.259505,0.354474 -0.259505,0.613098 0,0.267121 0.08956,0.471796 0.268521,0.614322 0.180172,0.141583 0.440297,0.212414 0.780084,0.212414 0.142685,0 0.277938,-0.0098 0.406113,-0.02965 0.128176,-0.01982 0.254158,-0.0496 0.377499,-0.08925 v -0.380819 c -0.129386,0.05947 -0.253508,0.102829 -0.37201,0.1302 -0.118502,0.02738 -0.238905,0.04095 -0.361034,0.04095 -0.185008,0 -0.323982,-0.03064 -0.41709,-0.092 -0.09311,-0.06135 -0.140303,-0.154439 -0.141512,-0.279033 h 1.376709 v -0.168403 c 0,-0.252962 -0.08322,-0.448674 -0.250096,-0.587426 -0.165662,-0.139696 -0.399024,-0.209664 -0.700115,-0.209664 z m 2.214416,0 c -0.135431,0 -0.263633,0.0089 -0.384552,0.02689 -0.120922,0.01794 -0.239821,0.04568 -0.357114,0.08344 v 0.354226 c 0.129384,-0.05475 0.253116,-0.09465 0.371618,-0.119192 0.119711,-0.02548 0.243082,-0.03821 0.370048,-0.03821 0.120921,0 0.21234,0.01764 0.27401,0.05256 0.06288,0.03398 0.09447,0.08428 0.09447,0.151288 v 0.06938 h -0.368482 c -0.321648,0 -0.55909,0.04454 -0.712658,0.133257 -0.153569,0.08778 -0.230498,0.224239 -0.230498,0.409242 0,0.170843 0.0643,0.303823 0.192475,0.399154 0.129384,0.09533 0.309612,0.143036 0.540569,0.143036 0.12092,0 0.231269,-0.01878 0.331633,-0.05654 0.100365,-0.03775 0.182873,-0.09184 0.246961,-0.161679 v 0.177265 h 0.527634 v -0.904977 c 0,-0.269951 -0.06726,-0.457286 -0.201488,-0.562058 -0.133013,-0.104777 -0.364515,-0.157098 -0.694628,-0.157098 z m 3.462551,0.03821 0.772636,1.541914 -0.03959,0.08496 c -0.052,0.104778 -0.103663,0.171262 -0.154449,0.19958 -0.05078,0.02926 -0.130293,0.04401 -0.239121,0.04401 h -0.215994 v 0.315718 h 0.439042 c 0.142687,0 0.263447,-0.0344 0.362601,-0.103301 0.100364,-0.06796 0.186202,-0.17667 0.257545,-0.325804 l 0.843584,-1.757089 H 18.157057 L 17.712526,11.3472 17.248004,10.31783 Z m -5.676967,0.28332 c 0.135431,0 0.23762,0.02833 0.306545,0.08497 0.07014,0.05569 0.106166,0.138071 0.108585,0.247561 l -0.83614,0.0015 c 0.0133,-0.106626 0.05642,-0.18873 0.128968,-0.246306 0.07255,-0.05852 0.169911,-0.08772 0.292042,-0.08772 z m 4.398258,0.02384 c 0.114874,0 0.205543,0.04367 0.272049,0.130505 0.06651,0.08684 0.09996,0.206514 0.09996,0.359423 0,0.15291 -0.03345,0.272892 -0.09996,0.35973 -0.0665,0.08684 -0.157175,0.130199 -0.272049,0.130199 -0.114875,0 -0.204792,-0.04337 -0.27009,-0.130199 -0.06529,-0.08684 -0.098,-0.20682 -0.098,-0.35973 0,-0.152909 0.0327,-0.272586 0.098,-0.359423 0.06529,-0.08684 0.155215,-0.130505 0.27009,-0.130505 z m -2.027825,0.533939 h 0.212465 v 0.02812 c 0,0.14819 -0.03903,0.263831 -0.116424,0.346892 -0.07739,0.08212 -0.185878,0.123175 -0.326146,0.123175 -0.09311,0 -0.167066,-0.0211 -0.221481,-0.06358 -0.05441,-0.04248 -0.08154,-0.09973 -0.08154,-0.171459 0,-0.09628 0.03939,-0.164213 0.117993,-0.203858 0.07859,-0.03964 0.216821,-0.05929 0.415129,-0.05929 z m 6.248507,0.224946 v 0.519881 h 0.604073 v -0.519881 z"
     id="text4971" />
</svg>
